<svg xmlns="http://www.w3.org/2000/svg" xmlns:xlink="http://www.w3.org/1999/xlink" fill="none" version="1.1" width="32" height="32" viewBox="0 0 32 32"><defs><clipPath id="master_svg0_4184_44208"><rect x="0" y="0" width="32" height="32" rx="0"/></clipPath><linearGradient x1="0.7304486036300659" y1="0.8851538896560669" x2="0.595781028404523" y2="-0.05730181990339001" id="master_svg1_96_00969"><stop offset="0%" stop-color="#1C67EB" stop-opacity="1"/><stop offset="100%" stop-color="#5693FF" stop-opacity="1"/></linearGradient><linearGradient x1="0.7304486036300659" y1="0.8851538896560669" x2="0.4547927361645833" y2="-0.07467897317252145" id="master_svg2_96_00969"><stop offset="0%" stop-color="#1C67EB" stop-opacity="1"/><stop offset="100%" stop-color="#5693FF" stop-opacity="1"/></linearGradient><linearGradient x1="0.5" y1="0" x2="0.5" y2="1" id="master_svg3_96_00973"><stop offset="0%" stop-color="#20CC94" stop-opacity="1"/><stop offset="100%" stop-color="#12A679" stop-opacity="1"/></linearGradient></defs><g clip-path="url(#master_svg0_4184_44208)"><g><g><path d="M4.5,22.9223C4.5,23.0987,4.61041,23.2563,4.776223,23.3165L11.87228,25.892C12.145669999999999,25.9912,12.43459,25.7888,12.43459,25.4979L12.43459,15.8125C12.43459,15.5238,12.149750000000001,15.3215,11.877220000000001,15.4166L9.840910000000001,16.127000000000002C9.67254,16.1857,9.55974,16.3445,9.55974,16.5228L9.55974,21.5707C9.55974,21.8593,9.274899999999999,22.0616,9.002379999999999,21.9666L7.6560299999999994,21.4969C7.48765,21.4382,7.37485,21.2794,7.37485,21.1011L7.37485,10.1873C7.37485,10.00897,7.48765,9.850159999999999,7.65602,9.791419999999999L14.6258,7.36006C14.7942,7.30133,14.907,7.14252,14.907,6.96419L14.907,4.919611C14.907,4.631114,14.6224,4.4288141,14.3499,4.5236345L4.781468,7.85347C4.612942,7.91212,4.5,8.07101,4.5,8.24945L4.5,22.9223Z" fill="url(#master_svg1_96_00969)" fill-opacity="1"/></g><g><path d="M9.95809325,11.086339375C9.78916325,11.145269375,9.676240355,11.304899375,9.67692438,11.483819375L9.68472915,13.525199375C9.68583005,13.813149375,9.97020725,14.014319375,10.24209325,13.919469375L14.67802125,12.372019375L14.67802125,26.540459375C14.67802125,26.718759375,14.79082125,26.877559375,14.95920125,26.936359375L15.94872125,27.281559375C16.03814125,27.312659375,16.13549125,27.312659375,16.224911249999998,27.281559375L17.27170125,26.916359375C17.44008125,26.857659375,17.55287125,26.698859375,17.55287125,26.520459375L17.55287125,12.379179375L21.76778125,13.849519375C22.04028125,13.944579375,22.32508125,13.742269375,22.32508125,13.453639375L22.32508125,11.409529375C22.32508125,11.231209375,22.21228125,11.072399375,22.04398125,11.013659375L16.11212125,8.944366475C16.110521249999998,8.943806222,16.10876125,8.944625705,16.10815125,8.946215375C16.10712125,8.948914045,16.10331125,8.948914445,16.10228125,8.946214325C16.10167125,8.944624685,16.099911249999998,8.943805349,16.098311250000002,8.944365635L9.95809325,11.086339375Z" fill="url(#master_svg2_96_00969)" fill-opacity="1"/></g><g><path d="M16.9765625,4.933282875L16.9765625,6.977771875C16.9765625,7.1560918749999995,17.0893605,7.314901875,17.2577335,7.373641875000001L24.623672499999998,9.943201875L24.623672499999998,20.166471875L22.4962825,20.908671875L22.4962825,16.569371875C22.4962825,16.390471875,22.3827925,16.231371875,22.2136925,16.173071874999998L20.1824025,15.472571875C19.9102225,15.378671875,19.6265925,15.580771875,19.6264525,15.868771875L19.6217125,25.485771875C19.6215725,25.772171875,19.9022625,25.974471875,20.1738925,25.883671875L22.2099225,25.203071875C22.3809625,25.145971875,22.4962825,24.985771875,22.4962825,24.805471875L22.4962825,23.840871875L27.2184625,22.193571875C27.3867625,22.134771875,27.4995625,21.975971875,27.4995625,21.797671875L27.4985625,8.304731875C27.4985625,8.126331875,27.385662500000002,7.967471875,27.2171625,7.908811875L17.5336915,4.537327075C17.2612105,4.442457375,16.9765625,4.644758875,16.9765625,4.933282875Z" fill="url(#master_svg3_96_00973)" fill-opacity="1"/></g></g></g></svg>